<mxfile host="app.diagrams.net" agent="Mozilla/5.0 (X11; CrOS x86_64 14541.0.0) AppleWebKit/537.36 (KHTML, like Gecko) Chrome/126.0.0.0 Safari/537.36" version="26.0.16">
  <diagram name="Page-1" id="DgGSnDjIdXW3tW_6QvY8">
    <mxGraphModel dx="880" dy="426" grid="1" gridSize="10" guides="1" tooltips="1" connect="1" arrows="1" fold="1" page="1" pageScale="1" pageWidth="850" pageHeight="1100" math="0" shadow="0">
      <root>
        <mxCell id="0" />
        <mxCell id="1" parent="0" />
        <mxCell id="utWBUcR4IzovKDKErFbJ-1" value="&lt;p style=&quot;margin:0px;margin-top:4px;text-align:center;&quot;&gt;&lt;b&gt;Render-In-Place Recorder&lt;/b&gt;&lt;/p&gt;&lt;hr size=&quot;1&quot; style=&quot;border-style:solid;&quot;&gt;&lt;div style=&quot;height:2px;&quot;&gt;&lt;ul&gt;&lt;li&gt;Read Wav File: Reads a .wav file and writes it to a new one&lt;/li&gt;&lt;li&gt;Read Multiple Wav Files: Reads from multiple wav files and creates a single new one that combines all of them&lt;/li&gt;&lt;li&gt;Create File From Stream: Creates a wav file from a Wwise stream&lt;/li&gt;&lt;li&gt;Append Wwise Stream: Reads a Wwise stream and appends it onto a wav file&lt;/li&gt;&lt;/ul&gt;&lt;/div&gt;" style="verticalAlign=top;align=left;overflow=fill;html=1;whiteSpace=wrap;" vertex="1" parent="1">
          <mxGeometry x="220" y="70" width="270" height="240" as="geometry" />
        </mxCell>
      </root>
    </mxGraphModel>
  </diagram>
</mxfile>
